<?xml version="1.0" standalone="no"?><!DOCTYPE svg PUBLIC "-//W3C//DTD SVG 1.1//EN" "http://www.w3.org/Graphics/SVG/1.1/DTD/svg11.dtd"><svg class="icon" height="512" viewBox="0 0 1033 1024" version="1.1" xmlns="http://www.w3.org/2000/svg"><path d="M1033.019479 338.931169H824.797531V203.67307L620.533599 0H70.491825v338.931169H0v484.608887h70.491825v200.459944h754.306969V823.540056h208.22321V338.931169h-0.002525zM613.506385 103.946214l103.946214 101.138359h-103.946214V103.946214zM208.959263 713.105725c-4.099419 1.61477-8.481643 3.032585-13.137836 4.253447-0.011363 0.003788-0.018938 0.007575-0.027776 0.007576-1.955651 0.51006-3.984529 0.969619-6.038657 1.41024-0.986032 0.209579-1.985952 0.409058-2.995972 0.60475-1.838237 0.353507-3.678998 0.709539-5.592986 1.008757a185.363931 185.363931 0 0 1-8.595271 1.143848c-1.283988 0.141403-2.623527 0.238617-3.934028 0.358557-2.398798 0.214629-4.832946 0.402745-7.332746 0.546673-1.206974 0.066914-2.416473 0.136353-3.648697 0.188116-3.730762 0.155291-7.520862 0.26513-11.468778 0.265131-26.246634 0-49.559159-3.002285-69.937577-9.004329l7.328958-32.876153c23.453928 8.097836 45.719821 12.149279 66.796415 12.149279 3.235852 0 6.340401-0.077014 9.352785-0.200742 0.89008-0.037876 1.727134-0.102265 2.600802-0.152765a183.230264 183.230264 0 0 0 6.209098-0.429259c0.888818-0.079539 1.743547-0.179279 2.612165-0.272705a139.597398 139.597398 0 0 0 5.662425-0.713327c0.74994-0.10984 1.487255-0.227255 2.218256-0.350982a108.51403 108.51403 0 0 0 5.623287-1.085771c0.51006-0.113627 1.03022-0.219679 1.53018-0.337095a83.237016 83.237016 0 0 0 6.181323-1.703146c0.101002-0.027776 0.207054-0.056814 0.306794-0.087114 6.54998-2.110942 11.973788-4.861984 16.294148-8.232926 8.366754-6.52978 12.606313-15.390181 12.606313-26.643067 0-12.23513-5.067776-22.860542-15.096012-31.905271a53.291183 53.291183 0 0 0-3.331804-2.857094c-8.237976-6.421203-24.432385-15.005111-48.57944-25.754249-25.408317-11.307175-43.208658-21.707856-53.398498-31.19952-14.101143-13.118898-21.147295-29.592325-21.147295-49.417756 0-20.656173 7.187555-37.484369 21.567716-50.46439 16.051744-14.519038 38.740582-21.778558 68.055152-21.778558 3.681523 0 7.215331 0.030301 10.638036 0.082064 0.209579 0.003788 0.424208 0.003788 0.633788 0.007576 3.355792 0.054289 6.573968 0.141403 9.681042 0.247455l0.606012 0.0202c3.137375 0.116152 6.147235 0.252505 9.029579 0.417896 0.095952 0.008838 0.191904 0.011363 0.289118 0.018938 2.949259 0.170441 5.764689 0.367395 8.443768 0.595911 12.668177 1.075671 22.336594 2.772505 28.94465 5.099339l-5.022325 33.295312c-10.992806-3.471944-22.340381-6.023507-34.041463-7.698878-0.659038-0.093427-1.321864-0.165391-1.982165-0.253768-2.638677-0.352244-5.292505-0.665351-7.96527-0.927956a237.462029 237.462029 0 0 0-10.420882-0.782765c-0.988557-0.050501-1.973327-0.116152-2.965672-0.157816-3.396192-0.141403-6.816373-0.232305-10.266854-0.232305-35.878438 0-53.816394 12.009139-53.816393 36.016053 0 11.588718 5.161203 21.292485 15.496232 29.108778 6.697696 4.887235 21.494489 12.283106 44.390382 22.197716a451.204999 451.204999 0 0 1 10.31988 4.628417c0.643888 0.294168 1.2398 0.592124 1.8698 0.887555a368.032372 368.032372 0 0 1 7.936232 3.830501c0.441884 0.220942 0.862305 0.440621 1.299138 0.657776a295.29199 295.29199 0 0 1 7.874369 4.122144l0.539099 0.294169a227.946377 227.946377 0 0 1 7.80493 4.465551c7.591563 4.553928 13.944589 9.013167 18.888637 13.362565 17.448097 15.35988 26.172145 34.204329 26.172145 56.535873 0.006313 33.362225-15.074549 55.878097-45.058257 67.691544z m283.573232 2.877295c0-9.348998-8.796012-38.736794-26.382987-88.155813h-120.822387c-17.314269 48.720843-25.966353 78.107376-25.966353 88.155813h-42.297115c0-5.163728 18.008658-49.801564 54.02471-133.90846 36.016053-84.10437 54.027236-130.349401 54.027236-138.724992h48.57944c0 8.237976 17.174129 53.816394 51.513548 136.737778 34.336894 82.915072 51.509761 128.220784 51.50976 135.896937h-44.185852z m244.626858-62.250061a78.585873 78.585873 0 0 1-0.172966 1.9203 86.755673 86.755673 0 0 1-1.084509 7.547375c-0.093427 0.473447-0.214629 0.920381-0.315631 1.388778a72.481565 72.481565 0 0 1-1.516293 5.883367c-0.202004 0.666613-0.392645 1.349639-0.613587 2.004889a65.81417 65.81417 0 0 1-2.359659 6.058858c-0.333307 0.737315-0.705752 1.446854-1.060521 2.163968a60.192145 60.192145 0 0 1-2.175331 3.993367c-0.434309 0.729739-0.840842 1.482204-1.306714 2.191744a60.586053 60.586053 0 0 1-3.370941 4.625891 59.873989 59.873989 0 0 1-4.502165 4.993287 64.901364 64.901364 0 0 1-4.137295 3.792625 67.026194 67.026194 0 0 1-2.364709 1.925351 71.054911 71.054911 0 0 1-3.301503 2.382385c-0.698176 0.473447-1.438016 0.915331-2.162706 1.368577a79.872386 79.872386 0 0 1-6.509579 3.671423c-0.727214 0.366132-1.451904 0.731002-2.199319 1.083247a89.948599 89.948599 0 0 1-4.428937 1.964489c-16.60473 6.770922-37.853027 10.20499-63.883769 10.20499-26.250421 0-49.561684-3.003547-69.943889-9.005591l7.33022-32.874891c23.452666 8.097836 45.722346 12.149279 66.798939 12.149279 28.443427 0 48.299159-4.850621 59.698499-14.476113a35.363327 35.363327 0 0 0 2.66014-2.493487c0.017675-0.021463 0.036613-0.039138 0.056813-0.059338a30.471043 30.471043 0 0 0 5.570261-8.085211c0.121202-0.24998 0.258818-0.492385 0.36992-0.747415a33.595792 33.595792 0 0 0 0.823166-2.161443c0.209579-0.585812 0.409058-1.179198 0.587074-1.781423 0.178016-0.628737 0.347194-1.26505 0.491123-1.91525 0.186854-0.816854 0.330782-1.657695 0.458296-2.506112 0.079539-0.522685 0.172966-1.037796 0.232305-1.575632a40.489179 40.489179 0 0 0 0.251242-4.401162c0-1.526393-0.098477-3.021223-0.258817-4.497114-0.054289-0.530261-0.147715-1.049158-0.22473-1.574369a38.400963 38.400963 0 0 0-0.962044-4.646092 39.900842 39.900842 0 0 0-0.651463-2.097055c-0.243667-0.733527-0.478497-1.472104-0.768877-2.191743-0.111102-0.276493-0.251242-0.541623-0.36992-0.814329a40.722746 40.722746 0 0 0-3.078036-5.821503c-0.077014-0.121202-0.14014-0.241142-0.21968-0.362345a45.286774 45.286774 0 0 0-2.090741-2.922745c-0.126253-0.166653-0.258818-0.334569-0.387596-0.49996-2.597014-3.283828-5.691463-6.408577-9.417174-9.333848-8.237976-6.41994-24.432385-15.005111-48.580702-25.752986-25.408317-11.308437-43.209921-21.709119-53.397236-31.200783-14.09988-13.117636-21.147295-29.592325-21.147295-49.416494 0-20.657435 7.188818-37.484369 21.567716-50.465652 16.055531-14.516513 38.741844-21.778558 68.058939-21.778557 15.87499 0 29.333508 0.49996 40.427316 1.489779 4.507215 0.398958 8.615471 0.882505 12.338657 1.446854 0.044188 0.007575 0.093427 0.013888 0.137615 0.022725 1.153948 0.175491 2.268758 0.35982 3.348217 0.552986 0.095952 0.01515 0.194429 0.032826 0.292906 0.046714 1.008758 0.183066 1.970802 0.372445 2.912645 0.568136 0.14519 0.030301 0.303006 0.059339 0.444409 0.089639 0.86988 0.183066 1.689259 0.38002 2.499799 0.574449 0.189379 0.046713 0.39012 0.090902 0.574449 0.13509 0.776453 0.193166 1.506192 0.396433 2.227095 0.603487 0.184329 0.051764 0.382545 0.099739 0.559298 0.151503a47.647696 47.647696 0 0 1 2.502325 0.808016l-5.0299 33.296574c-3.440381-1.085772-6.928738-2.051603-10.438557-2.965671-0.631263-0.162866-1.262525-0.318156-1.896313-0.475972a210.735635 210.735635 0 0 0-10.467595-2.347034h-0.007576c-14.386473-2.826794-29.31962-4.26481-44.827215-4.26481-35.883488 0-53.816394 12.007876-53.816394 36.01479 0 11.588718 5.161203 21.292485 15.497496 29.108779 6.702746 4.88976 21.497014 12.283106 44.392906 22.197715 15.497495 6.714108 28.375251 13.226213 38.753207 19.543889 1.513768 0.920381 2.944208 1.834449 4.354449 2.749779 0.450721 0.291643 0.902705 0.584549 1.345852 0.876193 1.166573 0.773928 2.29022 1.545331 3.383567 2.311683 0.763828 0.537836 1.48978 1.073146 2.214469 1.609719 0.778978 0.574449 1.568056 1.146373 2.300321 1.718297a94.64898 94.64898 0 0 1 4.184008 3.439118c17.448097 15.358618 26.177195 34.203067 26.177195 56.535873-0.002525 2.849519-0.155291 5.601824-0.37497 8.306153z m111.77387 69.159861a307.298603 307.298603 0 0 1-24.133167-0.948157c-8.191263-0.641363-16.047956-1.61982-23.589018-2.934108-0.357295-0.061864-0.705752-0.133828-1.063046-0.195691a214.880505 214.880505 0 0 1-9.106594-1.847074c-0.768878-0.172966-1.544068-0.342144-2.307896-0.525211a192.916356 192.916356 0 0 1-9.745431-2.552826l7.328958-32.876152c3.190401 1.099659 6.351764 2.113467 9.495452 3.06541 0.559299 0.167916 1.117335 0.313106 1.674108 0.478497 2.682866 0.789078 5.345531 1.533968 7.999359 2.214469l1.109759 0.271443c2.90002 0.732265 5.77479 1.393828 8.635672 1.98974l0.372445 0.077014c3.086874 0.637575 6.147235 1.198136 9.187395 1.685471h0.00505c9.660842 1.544068 19.108317 2.364709 28.318437 2.364709 47.460843 0 71.197577-13.404229 71.197577-40.205111 0-13.539319-6.142184-25.129299-18.427816-34.761103-8.237976-6.421203-24.432385-15.005111-48.578178-25.754249-12.756553-5.677575-23.594069-11.125371-32.51002-16.342124-4.423888-2.590701-8.374329-5.120802-11.858898-7.596614a11.135471 11.135471 0 0 1-0.098477-0.075751 101.649681 101.649681 0 0 1-4.763507-3.595672 75.617677 75.617677 0 0 1-4.162546-3.594408c-14.102405-13.117636-21.14982-29.593588-21.14982-49.416494 0-20.657435 7.187555-37.485632 21.568979-50.46439 1.78016-1.612245 3.671423-3.099499 5.622024-4.53499 0.641363-0.472184 1.304188-0.919118 1.965751-1.372365a72.901985 72.901985 0 0 1 4.250922-2.704329c0.763828-0.450721 1.523868-0.916593 2.307896-1.347114 14.390261-7.860481 32.342105-11.81976 53.908558-11.81976 33.22461 0 55.975312 2.165231 68.264731 6.488117l-5.027375 33.296574c-21.221784-6.706533-43.764169-10.053487-67.635993-10.053488-19.949159 0-34.329319 3.725711-43.187195 11.148097-0.636313 0.535311-1.213287 1.10976-1.792786 1.684208-0.276493 0.271443-0.564349 0.530261-0.825691 0.809279-0.496172 0.531523-0.949419 1.092084-1.397616 1.65517-0.290381 0.366132-0.592124 0.727214-0.863567 1.107235-0.39517 0.540361-0.752465 1.107234-1.104709 1.67537a27.071063 27.071063 0 0 0-2.315471 4.681443c-0.217154 0.558036-0.431784 1.12491-0.618637 1.704409-0.202004 0.633788-0.372445 1.289038-0.537836 1.948076-0.137615 0.541623-0.281543 1.075671-0.39517 1.632445a35.089359 35.089359 0 0 0-0.38002 2.455612c-0.064389 0.468397-0.14519 0.920381-0.189379 1.398877a43.630342 43.630342 0 0 0-0.199479 4.11962c0 1.324389 0.085852 2.61974 0.219679 3.896152 0.051764 0.486072 0.142665 0.959519 0.209579 1.435491 0.116152 0.75499 0.238617 1.503667 0.401483 2.246032a32.783989 32.783989 0 0 0 0.963307 3.441644c0.23483 0.696914 0.478497 1.386253 0.762565 2.065491 0.14014 0.339619 0.303006 0.664088 0.455772 0.999919 2.5402 5.603086 6.65982 10.625411 12.48006 15.026574 6.702746 4.88976 21.497014 12.283106 44.392907 22.200241 26.101443 11.303387 44.945893 22.056313 56.537135 32.246153 17.448097 15.35988 26.177195 34.204329 26.177195 56.537135-0.0101 51.646113-35.960502 77.471064-107.847417 77.471064z" fill="#e16602" /><path d="M405.001631 469.731292c0 4.330461-16.960762 47.886314-50.881023 130.659982h102.395834c-32.806714-81.940402-49.206915-125.494992-49.206915-130.659982h-2.307896z" fill="#e16602" /></svg>